<svg width="408" height="108" viewBox="0 0 408 108" fill="none" xmlns="http://www.w3.org/2000/svg">
<path d="M143.935 53.9488H161.525V59.4928H143.935V53.9488ZM144.489 73H137.937V37.72H163.692V43.2136H144.489V73ZM170.028 73V37.72H184.543C187.668 37.72 190.339 38.224 192.557 39.232C194.808 40.24 196.538 41.6848 197.748 43.5664C198.958 45.448 199.562 47.6824 199.562 50.2696C199.562 52.8568 198.958 55.0912 197.748 56.9728C196.538 58.8208 194.808 60.2488 192.557 61.2568C190.339 62.2312 187.668 62.7184 184.543 62.7184H173.657L176.58 59.7448V73H170.028ZM193.111 73L184.19 60.1984H191.196L200.167 73H193.111ZM176.58 60.4504L173.657 57.3256H184.241C187.13 57.3256 189.298 56.704 190.742 55.4608C192.221 54.2176 192.96 52.4872 192.96 50.2696C192.96 48.0184 192.221 46.288 190.742 45.0784C189.298 43.8688 187.13 43.264 184.241 43.264H173.657L176.58 40.0384V60.4504ZM212.941 52.3864H230.48V57.7792H212.941V52.3864ZM213.445 67.5064H233.353V73H206.893V37.72H232.647V43.2136H213.445V67.5064ZM251.594 73.504C248.838 73.504 246.201 73.1176 243.681 72.3448C241.161 71.5384 239.162 70.5136 237.683 69.2704L239.951 64.18C241.362 65.2888 243.11 66.2128 245.193 66.952C247.276 67.6912 249.41 68.0608 251.594 68.0608C253.442 68.0608 254.937 67.8592 256.079 67.456C257.222 67.0528 258.062 66.5152 258.599 65.8432C259.137 65.1376 259.406 64.348 259.406 63.4744C259.406 62.3992 259.019 61.5424 258.246 60.904C257.474 60.232 256.466 59.7112 255.222 59.3416C254.013 58.9384 252.652 58.5688 251.14 58.2328C249.662 57.8968 248.166 57.5104 246.654 57.0736C245.176 56.6032 243.815 56.0152 242.572 55.3096C241.362 54.5704 240.371 53.596 239.598 52.3864C238.826 51.1768 238.439 49.6312 238.439 47.7496C238.439 45.8344 238.943 44.0872 239.951 42.508C240.993 40.8952 242.555 39.6184 244.638 38.6776C246.755 37.7032 249.426 37.216 252.652 37.216C254.769 37.216 256.869 37.4848 258.952 38.0224C261.035 38.56 262.85 39.3328 264.395 40.3408L262.329 45.4312C260.75 44.4904 259.12 43.8016 257.44 43.3648C255.76 42.8944 254.147 42.6592 252.602 42.6592C250.787 42.6592 249.309 42.8776 248.166 43.3144C247.058 43.7512 246.234 44.3224 245.697 45.028C245.193 45.7336 244.941 46.54 244.941 47.4472C244.941 48.5224 245.31 49.396 246.05 50.068C246.822 50.7064 247.814 51.2104 249.023 51.58C250.266 51.9496 251.644 52.3192 253.156 52.6888C254.668 53.0248 256.163 53.4112 257.642 53.848C259.154 54.2848 260.514 54.856 261.724 55.5616C262.967 56.2672 263.958 57.2248 264.698 58.4344C265.47 59.644 265.857 61.1728 265.857 63.0208C265.857 64.9024 265.336 66.6496 264.294 68.2624C263.286 69.8416 261.724 71.1184 259.607 72.0928C257.49 73.0336 254.819 73.504 251.594 73.504ZM297.151 37.72H303.703V73H297.151V37.72ZM278.906 73H272.354V37.72H278.906V73ZM297.655 57.88H278.351V52.2856H297.655V57.88ZM308.166 73L324.042 37.72H330.494L346.42 73H339.566L325.907 41.1976H328.528L314.92 73H308.166ZM315.474 64.8352L317.238 59.6944H336.29L338.054 64.8352H315.474ZM350.907 73V37.72H357.459V67.456H375.905V73H350.907ZM381.078 73V37.72H387.63V67.456H406.076V73H381.078Z" fill="#F8C10B"/>
<path fill-rule="evenodd" clip-rule="evenodd" d="M95.481 77.0983C99.2029 70.311 101.319 62.5182 101.319 54.231C101.319 45.9439 99.2029 38.1511 95.481 31.3637C95.2143 21.0335 86.8891 12.7083 76.5589 12.4416C69.7715 8.71958 61.9787 6.60303 53.6915 6.60303C45.4043 6.60303 37.6114 8.71958 30.824 12.4416C20.4941 12.7084 12.1691 21.0334 11.9022 31.3633C8.18007 38.1508 6.06348 45.9437 6.06348 54.231C6.06348 62.5183 8.18007 70.3112 11.9022 77.0987C12.1691 87.4286 20.494 95.7535 30.8239 96.0204C37.6114 99.7424 45.4042 101.859 53.6915 101.859C61.9787 101.859 69.7716 99.7424 76.559 96.0204C86.8891 95.7536 95.2142 87.4285 95.481 77.0983Z" fill="#F8C10B"/>
<path fill-rule="evenodd" clip-rule="evenodd" d="M39.9556 60.2177C32.5467 62.9143 28.7725 71.6561 34.8302 76.7027C36.7607 78.311 38.9284 79.699 41.3129 80.8109C43.6059 81.8801 45.9656 82.6317 48.3424 83.0836C56.1397 84.566 60.4669 75.9895 57.7523 68.5311C55.1304 61.3276 47.159 57.5958 39.9556 60.2177ZM68.6267 49.7822C61.4304 52.4015 57.7275 60.3792 60.3467 67.5755C63.0617 75.0348 71.8944 78.8222 76.9081 72.668C78.4293 70.8008 79.7464 68.7172 80.8107 66.4349C81.9247 64.0458 82.6939 61.5844 83.1386 59.1068C84.53 51.3541 76.0283 47.0883 68.6267 49.7822ZM72.5876 30.7746C78.7213 35.736 74.9875 44.5249 67.5742 47.2231C60.4465 49.8173 52.548 46.1486 49.9537 39.021C47.2733 31.6568 51.5496 23.2123 59.256 24.6364C61.6832 25.085 64.0937 25.8454 66.4347 26.9371C68.6844 27.9861 70.741 29.2809 72.5876 30.7746ZM47.3532 39.9598C49.9488 47.0912 46.2515 54.9839 39.1201 57.5795C31.6995 60.2804 23.1781 55.944 24.6929 48.1938C25.1476 45.8673 25.8899 43.5582 26.9369 41.3131C28.0335 38.9614 29.3986 36.8206 30.9788 34.9102C35.9731 28.8722 44.6731 32.5965 47.3532 39.9598Z" fill="#FEF7DD"/>
<path d="M45.4867 30.9535C43.7828 31.5737 40.7167 27.4475 40.0966 25.7436C39.4764 24.0397 40.3549 22.1557 42.0588 21.5355C43.7628 20.9153 45.6468 21.7939 46.267 23.4978C46.8871 25.2017 47.1906 30.3333 45.4867 30.9535Z" fill="#FEF7DD"/>
<path d="M77.0397 45.3971C76.4195 43.6932 80.5456 40.6271 82.2495 40.007C83.9534 39.3868 85.8375 40.2653 86.4576 41.9692C87.0778 43.6732 86.1993 45.5572 84.4954 46.1774C82.7915 46.7975 77.6598 47.101 77.0397 45.3971Z" fill="#FEF7DD"/>
<path d="M30.9242 62.1818C31.5444 63.8857 27.4182 66.9517 25.7143 67.5719C24.0104 68.1921 22.1264 67.3135 21.5062 65.6096C20.886 63.9057 21.7646 62.0217 23.4685 61.4015C25.1724 60.7813 30.304 60.4778 30.9242 62.1818Z" fill="#FEF7DD"/>
<path d="M62.2711 77.0687C63.975 76.4486 67.0411 80.5747 67.6612 82.2786C68.2814 83.9825 67.4029 85.8665 65.699 86.4867C63.9951 87.1069 62.111 86.2283 61.4908 84.5244C60.8707 82.8205 60.5672 77.6889 62.2711 77.0687Z" fill="#FEF7DD"/>
<circle cx="53.9379" cy="54.1733" r="4.32" transform="rotate(-20 53.9379 54.1733)" fill="#FEF7DD"/>
</svg>
