<svg width="600" height="600" viewBox="0 0 600 600" fill="none" xmlns="http://www.w3.org/2000/svg">
<g clip-path="url(#clip0_179_288)">
<path fill-rule="evenodd" clip-rule="evenodd" d="M531.764 426.64C552.442 388.933 564.2 345.64 564.2 299.6C564.2 253.56 552.442 210.267 531.764 172.559C530.282 115.17 484.031 68.9183 426.641 67.4365C388.934 46.7586 345.64 35 299.6 35C253.56 35 210.266 46.7586 172.558 67.4365C115.17 68.919 68.9201 115.169 67.4373 172.557C46.7589 210.265 35 253.559 35 299.6C35 345.641 46.7589 388.935 67.4373 426.643C68.9202 484.031 115.17 530.28 172.558 531.763C210.266 552.441 253.56 564.2 299.6 564.2C345.64 564.2 388.934 552.441 426.642 531.763C484.031 530.281 530.282 484.03 531.764 426.64Z" fill="#F8C10B"/>
<path fill-rule="evenodd" clip-rule="evenodd" d="M223.292 332.859C182.132 347.84 161.164 396.405 194.818 424.442C205.543 433.376 217.585 441.087 230.833 447.265C243.571 453.205 256.681 457.38 269.885 459.891C313.203 468.127 337.243 420.479 322.162 379.044C307.596 339.025 263.311 318.293 223.292 332.859ZM382.576 274.884C342.596 289.436 322.024 333.756 336.576 373.736C351.659 415.176 400.729 436.217 428.583 402.027C437.034 391.654 444.352 380.078 450.265 367.398C456.454 354.126 460.727 340.452 463.197 326.688C470.928 283.617 423.696 259.918 382.576 274.884ZM404.582 169.285C438.658 196.849 417.914 245.676 376.729 260.667C337.13 275.079 293.249 254.697 278.837 215.099C263.946 174.186 287.703 127.272 330.516 135.184C344.001 137.676 357.392 141.901 370.398 147.966C382.897 153.794 394.323 160.987 404.582 169.285ZM264.389 220.315C278.809 259.934 258.269 303.782 218.65 318.202C177.425 333.207 130.084 309.116 138.499 266.06C141.025 253.135 145.149 240.306 150.966 227.832C157.058 214.768 164.642 202.875 173.42 192.262C201.166 158.717 249.5 179.407 264.389 220.315Z" fill="#FEF7DD"/>
<path d="M254.02 170.278C244.554 173.724 227.52 150.801 224.075 141.335C220.629 131.869 225.51 121.402 234.976 117.956C244.442 114.511 254.909 119.392 258.355 128.858C261.8 138.324 263.486 166.833 254.02 170.278Z" fill="#FEF7DD"/>
<path d="M429.315 250.522C425.87 241.056 448.793 224.022 458.259 220.577C467.725 217.131 478.192 222.012 481.638 231.478C485.083 240.944 480.202 251.411 470.736 254.857C461.27 258.302 432.761 259.988 429.315 250.522Z" fill="#FEF7DD"/>
<path d="M173.118 343.77C176.563 353.236 153.64 370.269 144.174 373.715C134.708 377.16 124.241 372.279 120.796 362.813C117.35 353.347 122.231 342.88 131.697 339.435C141.163 335.989 169.672 334.303 173.118 343.77Z" fill="#FEF7DD"/>
<path d="M347.267 426.475C356.733 423.029 373.767 445.952 377.212 455.418C380.658 464.884 375.777 475.351 366.311 478.797C356.845 482.242 346.378 477.361 342.932 467.895C339.487 458.429 337.801 429.92 347.267 426.475Z" fill="#FEF7DD"/>
<circle cx="300.971" cy="299.279" r="24" transform="rotate(-20 300.971 299.279)" fill="#FEF7DD"/>
</g>
<defs>
<clipPath id="clip0_179_288">
<rect width="600" height="600" fill="white"/>
</clipPath>
</defs>
</svg>
